<?xml version="1.0" standalone="no"?>
<!DOCTYPE svg PUBLIC "-//W3C//DTD SVG 20010904//EN"
 "http://www.w3.org/TR/2001/REC-SVG-20010904/DTD/svg10.dtd">
<svg version="1.0" xmlns="http://www.w3.org/2000/svg"
 width="48.000000pt" height="48.000000pt" viewBox="0 0 96.000000 96.000000"
 preserveAspectRatio="xMidYMid meet">

<g transform="translate(0.000000,96.000000) scale(0.100000,-0.100000)"
fill="#007bff" stroke="none">
<path d="M302 885 c-21 -9 -38 -26 -45 -45 -8 -20 -20 -31 -40 -36 -15 -3 -31
-13 -34 -21 -10 -26 11 -34 63 -26 42 7 50 12 52 33 5 34 20 50 46 50 32 0 46
-19 46 -62 0 -66 -52 -118 -118 -118 -26 0 -28 -3 -24 -29 2 -17 -3 -44 -11
-60 l-15 -31 38 0 c21 0 43 6 50 15 26 32 80 12 80 -30 0 -42 -54 -62 -80 -30
-13 15 -110 22 -123 9 -4 -4 5 -20 18 -36 47 -56 44 -110 -6 -116 -19 -2 -34
9 -67 49 -54 66 -58 120 -13 171 22 26 29 46 34 96 4 50 2 64 -10 69 -24 9
-45 -22 -47 -70 -2 -28 -10 -54 -24 -72 -38 -48 -48 -98 -28 -148 9 -25 26
-53 37 -62 11 -11 17 -25 14 -36 -18 -57 48 -150 117 -163 25 -5 36 -13 45
-36 16 -42 72 -65 119 -50 37 13 58 38 69 83 l7 27 -64 0 c-72 0 -88 10 -88
56 0 17 -7 37 -15 44 -32 26 -12 80 30 80 42 0 62 -54 29 -80 -8 -8 -14 -25
-12 -39 3 -24 7 -26 61 -29 l57 -3 0 281 c0 318 -4 340 -64 365 -42 18 -42 18
-84 0z"/>
<path d="M572 885 c-30 -13 -62 -62 -62 -95 0 -6 26 -10 63 -10 36 0 68 -5 75
-12 7 -7 12 -39 12 -74 0 -42 5 -65 15 -74 32 -26 12 -80 -30 -80 -42 0 -62
54 -30 80 12 10 15 28 13 69 l-3 56 -57 3 -58 3 0 -181 0 -180 44 0 c26 0 48
6 56 15 26 32 80 12 80 -30 0 -42 -54 -62 -80 -30 -8 9 -30 15 -56 15 l-44 0
0 -87 c0 -108 18 -151 71 -171 49 -18 105 4 122 48 9 23 20 31 45 36 33 6 102
57 102 75 0 5 -17 9 -38 9 -54 0 -62 13 -62 101 0 56 -4 80 -15 89 -32 26 -12
80 30 80 42 0 62 -54 30 -80 -12 -10 -15 -30 -13 -84 l3 -71 40 0 c38 0 40 2
40 30 0 17 10 43 23 59 38 49 48 98 28 149 -9 25 -26 53 -37 62 -11 11 -17 25
-14 36 19 58 -48 150 -118 163 -26 5 -37 13 -41 31 -12 48 -81 74 -134 50z"/>
</g>
</svg>
