<?xml version="1.0" standalone="no"?>
<!DOCTYPE svg PUBLIC "-//W3C//DTD SVG 20010904//EN"
 "http://www.w3.org/TR/2001/REC-SVG-20010904/DTD/svg10.dtd">
<svg version="1.0" xmlns="http://www.w3.org/2000/svg"
 width="48.000000pt" height="48.000000pt" viewBox="0 0 64.000000 64.000000"
 preserveAspectRatio="xMidYMid meet">

<g transform="translate(0.000000,64.000000) scale(0.100000,-0.100000)"
fill="#007bff" stroke="none">
<path d="M30 605 c-10 -12 -10 -19 -2 -27 7 -7 12 -21 12 -32 0 -11 12 -33 27
-48 23 -24 34 -28 86 -28 50 0 58 -2 55 -17 -2 -11 -13 -18 -25 -18 -12 0 -25
-4 -29 -8 -11 -11 -49 -8 -62 5 -10 10 -16 8 -29 -5 -16 -16 -16 -18 -1 -33
13 -13 19 -14 37 -2 16 9 25 10 39 2 27 -17 25 -38 -5 -51 -34 -16 -56 -16
-71 -1 -9 10 -16 8 -29 -5 -16 -16 -16 -18 0 -34 13 -13 20 -15 29 -5 15 15
37 15 71 0 30 -14 32 -35 5 -52 -14 -8 -23 -7 -39 2 -18 12 -24 11 -37 -2 -15
-15 -15 -17 1 -33 13 -13 20 -14 29 -5 13 13 51 16 62 5 4 -4 17 -8 29 -8 12
0 23 -7 25 -17 3 -16 -5 -18 -54 -18 -49 0 -62 -4 -86 -27 -15 -15 -28 -36
-28 -48 0 -11 -5 -26 -12 -33 -10 -9 -8 -16 5 -29 16 -16 18 -16 34 0 13 13
15 20 5 29 -16 16 -15 63 2 77 9 7 42 11 88 9 l73 -3 0 -34 c0 -43 -25 -62
-56 -43 -18 12 -24 11 -37 -2 -15 -15 -15 -17 0 -32 13 -13 19 -14 39 -2 53
29 79 61 79 95 0 40 20 44 37 6 16 -34 16 -56 1 -71 -10 -9 -8 -16 5 -29 16
-16 18 -16 34 0 13 13 15 20 5 29 -15 15 -15 37 1 71 17 38 37 34 37 -6 0 -34
26 -66 79 -95 20 -12 26 -11 39 2 15 15 15 17 0 32 -13 13 -19 14 -37 2 -31
-19 -56 0 -56 43 l0 34 73 3 c46 2 79 -2 88 -9 17 -14 18 -61 2 -77 -10 -9 -8
-16 5 -29 16 -16 18 -16 34 0 13 13 15 20 5 29 -7 7 -12 22 -12 33 0 12 -13
33 -28 48 -24 23 -37 27 -86 27 -49 0 -57 2 -54 18 2 10 13 17 25 17 12 0 25
4 29 8 11 11 49 8 62 -5 9 -9 16 -8 29 5 16 16 16 18 1 33 -13 13 -19 14 -37
2 -16 -9 -25 -10 -39 -2 -27 17 -25 38 5 52 34 15 56 15 71 0 9 -10 16 -8 29
5 16 16 16 18 0 34 -13 13 -20 15 -29 5 -15 -15 -37 -15 -71 1 -30 13 -32 34
-5 51 14 8 23 7 39 -2 18 -12 24 -11 37 2 15 15 15 17 -1 33 -13 13 -20 15
-29 5 -13 -13 -51 -16 -62 -5 -4 4 -17 8 -29 8 -12 0 -23 7 -25 18 -3 15 5 17
55 17 52 0 63 4 86 28 15 15 27 37 27 48 0 11 5 25 12 32 9 10 8 16 -5 29 -16
16 -18 16 -34 0 -13 -13 -14 -19 -5 -29 16 -16 15 -63 -2 -77 -9 -7 -42 -11
-88 -9 l-73 3 0 34 c0 43 25 62 56 43 18 -12 24 -11 37 2 15 15 15 17 0 32
-13 13 -19 14 -39 2 -53 -29 -79 -61 -79 -95 0 -40 -20 -44 -37 -6 -16 34 -16
56 -1 71 10 9 8 16 -5 29 -16 16 -18 16 -34 0 -13 -13 -15 -19 -5 -29 15 -15
15 -37 -1 -71 -17 -38 -37 -34 -37 6 0 34 -26 66 -79 95 -20 12 -26 11 -39 -2
-15 -15 -15 -17 0 -32 13 -13 19 -14 37 -2 31 19 56 0 56 -43 l0 -34 -73 -3
c-46 -2 -79 2 -88 9 -17 14 -18 61 -2 77 8 8 8 15 -2 27 -7 8 -16 15 -20 15
-4 0 -13 -7 -20 -15z m30 -15 c0 -5 -4 -10 -10 -10 -5 0 -10 5 -10 10 0 6 5
10 10 10 6 0 10 -4 10 -10z m110 0 c0 -5 -4 -10 -10 -10 -5 0 -10 5 -10 10 0
6 5 10 10 10 6 0 10 -4 10 -10z m160 0 c0 -5 -4 -10 -10 -10 -5 0 -10 5 -10
10 0 6 5 10 10 10 6 0 10 -4 10 -10z m160 0 c0 -5 -4 -10 -10 -10 -5 0 -10 5
-10 10 0 6 5 10 10 10 6 0 10 -4 10 -10z m110 0 c0 -5 -4 -10 -10 -10 -5 0
-10 5 -10 10 0 6 5 10 10 10 6 0 10 -4 10 -10z m-260 -104 c0 -16 37 -28 46
-15 11 19 33 8 36 -18 2 -22 9 -29 31 -31 26 -3 37 -25 18 -36 -13 -9 -1 -46
15 -46 8 0 14 -9 14 -20 0 -11 -6 -20 -14 -20 -16 0 -28 -37 -15 -46 19 -11 8
-33 -18 -36 -22 -2 -29 -9 -31 -30 -3 -27 -25 -38 -36 -19 -9 13 -46 1 -46
-15 0 -8 -9 -14 -20 -14 -11 0 -20 6 -20 14 0 16 -37 28 -46 15 -11 -19 -33
-8 -36 19 -2 21 -9 28 -30 30 -27 3 -38 25 -19 36 13 9 1 46 -15 46 -8 0 -14
9 -14 20 0 11 6 20 14 20 16 0 28 37 15 46 -19 11 -8 33 19 36 21 2 28 9 30
31 3 26 25 37 36 18 9 -13 46 -1 46 15 0 8 9 14 20 14 11 0 20 -6 20 -14z
m-250 -76 c0 -5 -4 -10 -10 -10 -5 0 -10 5 -10 10 0 6 5 10 10 10 6 0 10 -4
10 -10z m480 0 c0 -5 -4 -10 -10 -10 -5 0 -10 5 -10 10 0 6 5 10 10 10 6 0 10
-4 10 -10z m-510 -90 c0 -5 -4 -10 -10 -10 -5 0 -10 5 -10 10 0 6 5 10 10 10
6 0 10 -4 10 -10z m540 0 c0 -5 -4 -10 -10 -10 -5 0 -10 5 -10 10 0 6 5 10 10
10 6 0 10 -4 10 -10z m-510 -90 c0 -5 -4 -10 -10 -10 -5 0 -10 5 -10 10 0 6 5
10 10 10 6 0 10 -4 10 -10z m480 0 c0 -5 -4 -10 -10 -10 -5 0 -10 5 -10 10 0
6 5 10 10 10 6 0 10 -4 10 -10z m-510 -180 c0 -5 -4 -10 -10 -10 -5 0 -10 5
-10 10 0 6 5 10 10 10 6 0 10 -4 10 -10z m110 0 c0 -5 -4 -10 -10 -10 -5 0
-10 5 -10 10 0 6 5 10 10 10 6 0 10 -4 10 -10z m160 0 c0 -5 -4 -10 -10 -10
-5 0 -10 5 -10 10 0 6 5 10 10 10 6 0 10 -4 10 -10z m160 0 c0 -5 -4 -10 -10
-10 -5 0 -10 5 -10 10 0 6 5 10 10 10 6 0 10 -4 10 -10z m110 0 c0 -5 -4 -10
-10 -10 -5 0 -10 5 -10 10 0 6 5 10 10 10 6 0 10 -4 10 -10z"/>
<path d="M270 417 l-35 -12 0 -90 0 -90 42 -13 c36 -12 50 -12 85 0 l43 13 3
87 c2 75 0 88 -15 97 -33 17 -87 21 -123 8z m110 -17 c23 -15 -6 -30 -60 -30
-54 0 -83 15 -60 30 8 5 35 10 60 10 25 0 52 -5 60 -10z m-25 -41 c31 8 35 7
35 -9 0 -22 -19 -30 -70 -30 -51 0 -70 8 -70 30 0 16 4 17 35 9 23 -6 47 -6
70 0z m0 -50 c31 8 35 7 35 -9 0 -22 -19 -30 -70 -30 -51 0 -70 8 -70 30 0 16
4 17 35 9 23 -6 47 -6 70 0z m0 -50 c31 8 35 7 35 -9 0 -22 -19 -30 -70 -30
-51 0 -70 8 -70 30 0 16 4 17 35 9 23 -6 47 -6 70 0z"/>
</g>
</svg>
