<?xml version="1.0" standalone="no"?>
<!DOCTYPE svg PUBLIC "-//W3C//DTD SVG 20010904//EN"
 "http://www.w3.org/TR/2001/REC-SVG-20010904/DTD/svg10.dtd">
<svg version="1.0" xmlns="http://www.w3.org/2000/svg"
 width="48.000000pt" height="48.000000pt" viewBox="0 0 96.000000 96.000000"
 preserveAspectRatio="xMidYMid meet">

<g transform="translate(0.000000,96.000000) scale(0.100000,-0.100000)"
fill="#007bff" stroke="none">
<path d="M665 886 c-32 -23 -12 -46 40 -46 31 0 45 -4 45 -13 0 -24 45 -57 77
-57 47 0 60 -23 37 -65 -19 -36 -19 -37 11 -107 5 -13 -1 -22 -24 -35 -44 -25
-39 -58 9 -58 28 0 38 6 57 34 26 39 30 83 8 101 -8 7 -15 18 -15 25 0 7 7 18
15 25 22 18 18 62 -8 101 -19 28 -30 35 -65 37 -35 3 -43 7 -48 28 -4 13 -14
29 -24 34 -27 14 -93 12 -115 -4z"/>
<path d="M554 823 c-19 -13 -54 -76 -54 -97 0 -11 7 -28 17 -38 15 -17 15 -20
-2 -52 -22 -40 -16 -72 22 -116 23 -27 31 -31 59 -25 30 5 34 3 40 -20 8 -33
32 -45 87 -45 47 0 74 19 63 45 -4 10 -19 15 -51 15 -32 0 -45 4 -45 14 0 22
-49 56 -80 56 -40 0 -56 23 -36 52 20 28 20 67 1 95 -19 27 -10 52 22 64 33
12 28 53 -7 57 -14 1 -30 -1 -36 -5z"/>
<path d="M691 739 c-35 -14 -50 -39 -51 -81 0 -70 85 -104 135 -53 31 30 33
82 5 113 -12 12 -25 22 -30 22 -4 0 -14 2 -22 4 -7 3 -24 0 -37 -5z m47 -77
c3 -17 -2 -22 -17 -22 -14 0 -21 6 -21 18 0 38 33 41 38 4z"/>
<path d="M125 715 l-25 -24 0 -226 0 -225 -34 0 c-47 0 -70 -24 -62 -68 12
-78 67 -115 164 -110 53 3 57 5 57 28 0 24 -3 25 -60 28 -44 2 -66 9 -82 24
-13 12 -23 25 -23 30 0 4 189 8 420 8 231 0 420 -4 420 -8 0 -5 -10 -18 -23
-30 -23 -21 -31 -22 -264 -22 -202 0 -243 -2 -253 -15 -10 -12 -10 -18 0 -30
18 -21 474 -22 525 -1 39 17 64 50 71 98 8 44 -15 68 -62 68 l-34 0 0 54 c0
61 -19 88 -45 66 -10 -8 -15 -31 -15 -66 l0 -54 -320 0 -320 0 0 220 0 219
102 3 c91 3 103 5 106 22 6 29 -16 36 -121 36 -91 0 -100 -2 -122 -25z"/>
</g>
</svg>
